<svg version="1.1" id="Layer_1" xmlns:x="ns_extend;" xmlns:i="ns_ai;" xmlns:graph="ns_graphs;" xmlns="http://www.w3.org/2000/svg" xmlns:xlink="http://www.w3.org/1999/xlink" x="0px" y="0px" viewBox="0 0 217.8 100" style="enable-background:new 0 0 217.8 100;" xml:space="preserve">
 <style type="text/css">
  .st0{fill-rule:evenodd;clip-rule:evenodd;fill:#FFFFFF;}
	.st1{fill:#FFFFFF;}
 </style>
 <metadata>
  <sfw xmlns="ns_sfw;">
   <slices>
   </slices>
   <sliceSourceBounds bottomLeftOrigin="true" height="100" width="217.8" x="90.3" y="-250.7">
   </sliceSourceBounds>
  </sfw>
 </metadata>
 <g>
  <path class="st0" d="M24.3,59.2c0,5.1,0,5.1,5.1,4.4c5.4-0.7,9.4-3.9,10.6-8.5c0.6-2.4,0.6-4.8,0.2-7.3c-1-5.5-4.2-8.8-9.7-9.8
		c-1.4-0.2-2.7-0.3-4.1-0.4c-1.6-0.1-2.2,0.3-2.1,2C24.4,43.4,24.3,56.4,24.3,59.2z M172.7,72.9c-0.8-2.4-1.7-4.6-2.3-6.8
		c-0.4-1.2-0.7-1.5-1.9-0.6c-3.8,2.8-7.8,5.3-12.2,6.9c-1.2,0.4-1.9,0.4-2.2-1c-0.1-0.4-0.3-0.8-0.5-1.2c-0.6-1-0.4-1.6,0.8-1.9
		c3-1,5.7-2.6,8.2-4.6c1.5-1.2,2.8-2.6,3.6-4.4c0.6-1.3,0.3-2.1-1.2-2.5c-3.4-0.7-6.6,0-9.8,1.1c-1.4,0.5-0.4,1.4-0.1,2
		c1,2-0.4,2.5-1.8,2.6c-1,0.1-1.3-0.8-1.5-1.5c-0.4-1.3-1.1-1.3-2.1-0.6c-2.4,1.6-4.7,3.3-6.3,5.8c-0.6,1-0.7,1.8-0.1,2.9
		c3,5.1,5.8,10.3,8.8,15.4c0.7,1.2,0.5,1.5-0.8,1.8c-5,1.1-5,1.1-7.5-3.2c-2.3-4-4.5-8.1-7-12.1c-1.8-2.9-1.6-5.5,0.1-8.2
		c2.3-3.7,5.6-6.2,9.4-8.1c1.5-0.8,1.5-1.4,0.6-2.7c-2.4-3.4-8.8-10.3-9.2-10.7c-0.7-0.8-0.8-1.6-0.1-2.4c0.8-0.9,1.7-0.8,2.5,0
		c2.6,2.3,9.3,10.5,10.2,12.1c0.6,1,1.2,1.2,2.3,0.8c3.9-1.4,7.9-2.2,12.1-2c4.5,0.3,7.7,2.1,9.2,6.6c0.9,2.8,2,5.5,3,8.2
		c0.2,0.4,0.4,0.9,0.2,1.4C175.8,68.6,174.6,70.8,172.7,72.9L172.7,72.9L172.7,72.9L172.7,72.9L172.7,72.9L172.7,72.9z M133.8,44
		c-4.6,8.4-5.7,17.3-6.2,26.2c-0.1,1.4-0.4,1.6-1.6,1c-1.5-0.8-3-1.5-4.5-2.1c-0.8-0.3-1.2-0.8-0.9-1.6c1.9-6.9,4.2-13.7,8.5-19.5
		C130.2,46.3,131.6,44.9,133.8,44L133.8,44L133.8,44L133.8,44L133.8,44z M132.4,41c-8.8,1.6-15.9,6-22.8,11.3
		c-0.3-2.6-0.6-4.9-1-7.3c-0.1-0.5,0.1-0.9,0.6-1.1c6.2-2.6,12.4-4.9,19.3-4.2C129.9,39.9,131.1,40.1,132.4,41L132.4,41L132.4,41
		L132.4,41z M134.5,37.1c-7-3.3-14.2-3.1-21.6-2.9c1.1-2.3,2.2-4.4,3.2-6.5c0.2-0.5,0.6-0.7,1.2-0.5c6.3,1.9,12.4,4.1,17,9.3
		C134.4,36.5,134.4,36.6,134.5,37.1L134.5,37.1L134.5,37.1z M64.1,58.8c1.2-5.8,0.9-11.7-0.5-17.7c-1.9-7.9-6.3-14.1-13.3-18.3
		c-6.1-3.7-12.9-5.3-19.9-5.8c-9.5-0.6-19.1-0.1-28.6-0.3c-1.5,0-1.8,0.5-1.7,1.8c0.1,10.6,0.1,52.9,0,63.5c0,1.4,0.3,1.8,1.8,1.8
		c4.7-0.1,27.1,0.4,33.6-0.3c7.3-0.8,13.6-3.1,18.5-7.4c0.2,0.1,0.4,0.2,0.6,0.2c9.2,7.8,18.9,8.1,27.9,6
		c7.3-1.7,11.6-5.2,14.2-10.5c-0.7-1.7-2.3-4.3-4.1-12.7c-0.7-5-0.9-10.7,0-17.6c0.9-7.3,4.8-15.6,6.7-19.1c0-1.4,0-2.8,0-4.2
		c0-0.9-0.2-1.4-1.5-1.4c-7.5,0-14.9,0-22.4,0c-1.1,0-1.4,0.4-1.4,1.3c0,13.8,0,22.6,0.1,36.5c0,3.4-1.2,5-4.2,5.9
		C67.7,61.2,65.8,60.4,64.1,58.8L64.1,58.8L64.1,58.8L64.1,58.8L64.1,58.8L64.1,58.8L64.1,58.8L64.1,58.8z M143.6,8
		c-23.3,0-42.1,18.7-42.2,41.9c-0.1,23.3,18.9,42.2,42.2,42.1c23.3-0.1,42-18.8,42-41.9C185.6,26.8,166.9,8,143.6,8L143.6,8L143.6,8
		L143.6,8L143.6,8L143.6,8L143.6,8L143.6,8z M143.4,0c27.5-0.1,50.2,22.5,50.1,50c-0.1,27.7-22.3,49.4-48.9,50
		c-28.1,0.6-51.1-22-51.2-49.8C93.4,22.6,115.9,0.1,143.4,0L143.4,0L143.4,0L143.4,0L143.4,0L143.4,0L143.4,0L143.4,0z M137.2,34.8
		c-0.1-5.2-2.4-9.6-5.8-13.9c2.5,0,4.7,0,6.9,0c0.5,0,0.7,0.3,0.8,0.8C139.7,24.3,138.7,32.2,137.2,34.8z">
  </path>
  <path class="st1" d="M206.8,6.6L206.8,6.6c2,0,3.9,0.5,5.5,1.4l0,0l0,0c1.7,1,3,2.3,4,3.9l0,0l0,0c1,1.7,1.5,3.5,1.5,5.6l0,0l0,0
		c0,2.1-0.5,3.9-1.5,5.6l0,0l0,0c-1,1.7-2.3,3-4,4l0,0l0,0c-1.7,1-3.5,1.5-5.5,1.5l0,0l0,0c-2,0-3.9-0.5-5.5-1.5l0,0l0,0
		c-1.7-1-3-2.3-4-4l0,0l0,0c-1-1.7-1.5-3.5-1.5-5.6l0,0l0,0c0-2.1,0.5-3.9,1.5-5.6l0,0l0,0c1-1.7,2.3-3,4-3.9l0,0l0,0
		C202.9,7.1,204.8,6.6,206.8,6.6L206.8,6.6z M206.8,25.7L206.8,25.7c1.4,0,2.8-0.4,4-1.1l0,0l0,0c1.2-0.7,2.2-1.7,2.9-2.9l0,0l0,0
		c0.7-1.3,1.1-2.6,1.1-4.2l0,0l0,0c0-1.5-0.4-2.9-1.1-4.2l0,0l0,0c-0.7-1.3-1.7-2.2-2.9-3l0,0l0,0c-1.2-0.7-2.6-1.1-4-1.1l0,0l0,0
		c-1.4,0-2.8,0.4-4,1.1l0,0l0,0c-1.2,0.7-2.2,1.7-2.9,3l0,0l0,0c-0.7,1.3-1.1,2.6-1.1,4.2l0,0l0,0c0,1.5,0.4,2.9,1.1,4.2l0,0l0,0
		c0.7,1.3,1.7,2.2,2.9,2.9l0,0l0,0C204,25.4,205.4,25.7,206.8,25.7L206.8,25.7z M211,16.1L211,16.1c0,1.2-0.5,2-1.4,2.6l0,0l2.3,3.4
		h-3.1l-1.8-2.7h-1.3v2.7H203V13h4.2l0,0c1.2,0,2.1,0.3,2.8,0.9l0,0l0,0C210.6,14.5,211,15.2,211,16.1L211,16.1z M205.7,15.1v2.1
		h1.3l0,0c0.8,0,1.1-0.4,1.1-1.1l0,0l0,0c0-0.6-0.4-1-1.1-1l0,0H205.7z">
  </path>
 </g>
</svg>